<svg width="500" height="700" xmlns="http://www.w3.org/2000/svg" style="background-color: #0D1117; border-radius: 8px;">
    
    <defs>
        <linearGradient id="spectralGradient" x1="0%" y1="0%" x2="100%" y2="0%">
            <stop offset="0%" style="stop-color:#8b5cf6;stop-opacity:1" />
            <stop offset="50%" style="stop-color:#3b82f6;stop-opacity:1" />
            <stop offset="100%" style="stop-color:#06b6d4;stop-opacity:1" />
        </linearGradient>
        <filter id="glow">
            <feGaussianBlur stdDeviation="2.5" result="coloredBlur"/>
            <feMerge>
                <feMergeNode in="coloredBlur"/>
                <feMergeNode in="SourceGraphic"/>
            </feMerge>
        </filter>
    </defs>
    
    
    <!-- Title -->
    <text x="250.0" y="40" text-anchor="middle" font-family="Consolas, monospace" font-size="16" font-weight="bold" fill="#E6EDF3">SPECTRAL ENGINEERING</text>
    <line x1="40" y1="60" x2="460" y2="60" stroke="#30363D" stroke-width="1" />
    
    <!-- Top Section: Time Domain -->
    <text x="40" y="90" font-family="Consolas, monospace" font-size="12" fill="#8B949E">TIME DOMAIN (COMPLEX SIGNAL)</text>
    
    <!-- Grid lines for wave -->
    <line x1="40" y1="150" x2="460" y2="150" stroke="#30363D" stroke-dasharray="4" />
    
    <!-- The Wave -->
    <path d="M 40.0 150.0L 42.1 144.6L 44.2 139.5L 46.3 135.0L 48.4 131.1L 50.5 128.1L 52.6 126.1L 54.7 125.0L 56.8 124.9L 58.9 125.5L 61.0 126.8L 63.1 128.6L 65.2 130.6L 67.3 132.6L 69.4 134.5L 71.5 136.1L 73.6 137.3L 75.7 138.1L 77.8 138.4L 79.9 138.4L 82.0 138.0L 84.1 137.5L 86.2 137.0L 88.3 136.5L 90.4 136.1L 92.5 136.0L 94.6 136.1L 96.7 136.5L 98.8 137.0L 100.9 137.5L 103.0 138.0L 105.1 138.4L 107.2 138.4L 109.3 138.1L 111.4 137.3L 113.5 136.1L 115.6 134.5L 117.7 132.6L 119.8 130.6L 121.9 128.6L 124.0 126.8L 126.1 125.5L 128.2 124.9L 130.3 125.0L 132.4 126.1L 134.5 128.1L 136.6 131.1L 138.7 135.0L 140.8 139.5L 142.9 144.6L 145.0 150.0L 147.1 155.4L 149.2 160.5L 151.3 165.0L 153.4 168.9L 155.5 171.9L 157.6 173.9L 159.7 175.0L 161.8 175.1L 163.9 174.5L 166.0 173.2L 168.1 171.4L 170.2 169.4L 172.3 167.4L 174.4 165.5L 176.5 163.9L 178.6 162.7L 180.7 161.9L 182.8 161.6L 184.9 161.6L 187.0 162.0L 189.1 162.5L 191.2 163.0L 193.3 163.5L 195.4 163.9L 197.5 164.0L 199.6 163.9L 201.7 163.5L 203.8 163.0L 205.9 162.5L 208.0 162.0L 210.1 161.6L 212.2 161.6L 214.3 161.9L 216.4 162.7L 218.5 163.9L 220.6 165.5L 222.7 167.4L 224.8 169.4L 226.9 171.4L 229.0 173.2L 231.1 174.5L 233.2 175.1L 235.3 175.0L 237.4 173.9L 239.5 171.9L 241.6 168.9L 243.7 165.0L 245.8 160.5L 247.9 155.4L 250.0 150.0L 252.1 144.6L 254.2 139.5L 256.3 135.0L 258.4 131.1L 260.5 128.1L 262.6 126.1L 264.7 125.0L 266.8 124.9L 268.9 125.5L 271.0 126.8L 273.1 128.6L 275.2 130.6L 277.3 132.6L 279.4 134.5L 281.5 136.1L 283.6 137.3L 285.7 138.1L 287.8 138.4L 289.9 138.4L 292.0 138.0L 294.1 137.5L 296.2 137.0L 298.3 136.5L 300.4 136.1L 302.5 136.0L 304.6 136.1L 306.7 136.5L 308.8 137.0L 310.9 137.5L 313.0 138.0L 315.1 138.4L 317.2 138.4L 319.3 138.1L 321.4 137.3L 323.5 136.1L 325.6 134.5L 327.7 132.6L 329.8 130.6L 331.9 128.6L 334.0 126.8L 336.1 125.5L 338.2 124.9L 340.3 125.0L 342.4 126.1L 344.5 128.1L 346.6 131.1L 348.7 135.0L 350.8 139.5L 352.9 144.6L 355.0 150.0L 357.1 155.4L 359.2 160.5L 361.3 165.0L 363.4 168.9L 365.5 171.9L 367.6 173.9L 369.7 175.0L 371.8 175.1L 373.9 174.5L 376.0 173.2L 378.1 171.4L 380.2 169.4L 382.3 167.4L 384.4 165.5L 386.5 163.9L 388.6 162.7L 390.7 161.9L 392.8 161.6L 394.9 161.6L 397.0 162.0L 399.1 162.5L 401.2 163.0L 403.3 163.5L 405.4 163.9L 407.5 164.0L 409.6 163.9L 411.7 163.5L 413.8 163.0L 415.9 162.5L 418.0 162.0L 420.1 161.6L 422.2 161.6L 424.3 161.9L 426.4 162.7L 428.5 163.9L 430.6 165.5L 432.7 167.4L 434.8 169.4L 436.9 171.4L 439.0 173.2L 441.1 174.5L 443.2 175.1L 445.3 175.0L 447.4 173.9L 449.5 171.9L 451.6 168.9L 453.7 165.0L 455.8 160.5L 457.9 155.4L 460.0 150.0" stroke="url(#spectralGradient)" stroke-width="2" fill="none" filter="url(#glow)" />
    
    <!-- Middle Section: FFT Process -->
    <g transform="translate(250.0, 260)">
        <line x1="0" y1="0" x2="0" y2="80" stroke="#8B949E" stroke-width="1" stroke-dasharray="4" />
        <polygon points="-5,80 5,80 0,90" fill="#8B949E" />
        
        <rect x="-100" y="25" width="200" height="30" rx="15" fill="#0D1117" stroke="#30363D" />
        <text x="0" y="45" text-anchor="middle" font-family="Consolas, monospace" font-size="12" fill="#E6EDF3">FFT DECOMPOSITION</text>
    </g>
    
    <!-- Bottom Section: Frequency Domain -->
    <text x="40" y="410" font-family="Consolas, monospace" font-size="12" fill="#8B949E">FREQUENCY DOMAIN (ORGANIZED COMPONENTS)</text>
    <line x1="40" y1="420" x2="460" y2="420" stroke="#30363D" stroke-width="1" />
    
    <rect x="40" y="450" width="360.0" height="25" fill="url(#spectralGradient)" rx="4" filter="url(#glow)" /><text x="40" y="445" font-family="Consolas, monospace" font-size="12" fill="#E6EDF3">L5: Perception & Interface</text><rect x="40" y="495" width="300.0" height="25" fill="url(#spectralGradient)" rx="4" filter="url(#glow)" /><text x="40" y="490" font-family="Consolas, monospace" font-size="12" fill="#E6EDF3">L4: Agentic Cognition</text><rect x="40" y="540" width="240.0" height="25" fill="url(#spectralGradient)" rx="4" filter="url(#glow)" /><text x="40" y="535" font-family="Consolas, monospace" font-size="12" fill="#E6EDF3">L3: Semantic Memory</text><rect x="40" y="585" width="180.0" height="25" fill="url(#spectralGradient)" rx="4" filter="url(#glow)" /><text x="40" y="580" font-family="Consolas, monospace" font-size="12" fill="#E6EDF3">L2: Transport & Compute</text><rect x="40" y="630" width="120.0" height="25" fill="url(#spectralGradient)" rx="4" filter="url(#glow)" /><text x="40" y="625" font-family="Consolas, monospace" font-size="12" fill="#E6EDF3">L1: Settlement & Trust</text>
    
    <!-- Equation Decorator (Optional/Subtle) -->
    <text x="460" y="680" text-anchor="end" font-family="Consolas, monospace" font-size="10" fill="#8B949E" opacity="0.5">X(k) = Σ x(n)·e^(-i·2π·k·n/N)</text>

</svg>